<?xml version="1.0" encoding="UTF-8" standalone="no"?>
<!-- Created with Inkscape (http://www.inkscape.org/) -->

<svg
   width="105.61033mm"
   height="32.922756mm"
   viewBox="0 0 105.61033 32.922756"
   version="1.1"
   id="svg1"
   xml:space="preserve"
   inkscape:version="1.3 (0e150ed, 2023-07-21)"
   sodipodi:docname="higher.svg"
   inkscape:export-filename="higher.png"
   inkscape:export-xdpi="96"
   inkscape:export-ydpi="96"
   xmlns:inkscape="http://www.inkscape.org/namespaces/inkscape"
   xmlns:sodipodi="http://sodipodi.sourceforge.net/DTD/sodipodi-0.dtd"
   xmlns="http://www.w3.org/2000/svg"
   xmlns:svg="http://www.w3.org/2000/svg"><sodipodi:namedview
     id="namedview1"
     pagecolor="#ffffff"
     bordercolor="#000000"
     borderopacity="0.25"
     inkscape:showpageshadow="2"
     inkscape:pageopacity="0.0"
     inkscape:pagecheckerboard="0"
     inkscape:deskcolor="#d1d1d1"
     inkscape:document-units="mm"
     inkscape:export-bgcolor="#ffffffff"
     inkscape:zoom="0.41280939"
     inkscape:cx="53.293362"
     inkscape:cy="157.45766"
     inkscape:window-width="1512"
     inkscape:window-height="835"
     inkscape:window-x="0"
     inkscape:window-y="38"
     inkscape:window-maximized="1"
     inkscape:current-layer="layer1" /><defs
     id="defs1" /><g
     inkscape:label="Layer 1"
     inkscape:groupmode="layer"
     id="layer1"
     transform="translate(-54.063114,-79.860467)"><text
       xml:space="preserve"
       style="font-weight:bold;font-size:25.8469px;line-height:1.2;font-family:Avenir;-inkscape-font-specification:'Avenir Bold';text-align:end;text-anchor:end;fill:#2980b9;fill-opacity:1;stroke-width:2.61536;paint-order:fill markers stroke"
       x="159.88019"
       y="112.31798"
       id="text1-5"
       inkscape:export-filename="higher.png"
       inkscape:export-xdpi="96"
       inkscape:export-ydpi="96"><tspan
         sodipodi:role="line"
         id="tspan1-0"
         style="fill:#2980b9;fill-opacity:1;stroke-width:2.61536"
         x="159.88019"
         y="112.31798">H  GHER</tspan></text><path
       style="fill:#000000"
       id="path4"
       d="" /><path
       id="path7"
       style="fill:#2980b9;fill-opacity:1;stroke:none;stroke-width:0.254399"
       d="m 83.487219,85.827587 a 7.6804656,3.7606429 0 0 1 -7.521722,3.04096 7.6804656,3.7606429 0 0 1 -0.920749,-0.0296 c 0.0011,0.0118 0.0012,0.0249 0.0025,0.0375 0.09427,0.97376 0.518794,1.82048 1.153133,2.55702 0.302568,0.35129 0.703387,0.5924 0.920749,1.00938 -0.76195,0.20802 -1.60623,0.50169 -2.287101,0.90557 -0.208803,0.1239 -0.633912,0.34463 -0.603717,0.63966 0.04327,0.42367 0.952506,0.56994 1.276112,0.65085 0.443864,0.11094 1.469783,0.0831 1.768031,0.45039 0.217396,0.26778 0.133099,0.86642 0.110999,1.18986 -0.149743,2.18729 -0.361472,4.865773 -1.334409,6.866103 -0.24498,0.50372 -0.89552,0.62347 -1.119592,1.08367 -0.225294,0.46269 0.181547,0.93256 -0.141351,1.40627 -0.719888,1.05619 -2.269754,1.82763 -2.725514,3.02898 -0.155059,0.40873 0.274072,0.70047 0.186066,1.07725 -0.146651,0.62787 -0.776191,1.5879 -0.253146,2.26793 0.219002,0.28474 0.704051,0.22279 1.018974,0.22281 h 2.624895 7.538489 c 1.188277,0 2.529605,0.17552 3.702165,-0.009 0.678442,-0.10754 0.547855,-1.47191 0.364146,-1.94211 -0.0751,-0.19224 -0.28849,-0.33373 -0.324218,-0.53824 -0.07047,-0.40302 0.417136,-0.6724 0.228392,-1.14435 -0.496606,-1.24162 -2.165307,-1.89586 -2.787006,-3.09605 -0.217288,-0.41945 0.150406,-0.86477 -0.06068,-1.27292 -0.240344,-0.46472 -0.865553,-0.58154 -1.122789,-1.08285 -0.875641,-1.70654 -0.994068,-3.987023 -1.240177,-5.855923 -0.06908,-0.52475 -0.338349,-1.73397 -0.03674,-2.20085 0.136143,-0.21075 0.451202,-0.20859 0.671596,-0.24117 0.568248,-0.0839 1.135231,-0.21246 1.682584,-0.38729 0.22486,-0.0718 0.681056,-0.18395 0.70354,-0.47595 0.04805,-0.62399 -1.595817,-1.10954 -2.049926,-1.28491 -0.170696,-0.0658 -0.652669,-0.14912 -0.688367,-0.37132 -0.03508,-0.21862 0.351964,-0.44746 0.486329,-0.5694 0.417329,-0.37872 0.776553,-0.82293 1.017376,-1.33521 0.698888,-1.48667 0.583126,-3.25037 -0.238771,-4.59654 z" /><path
       style="fill:#f39c12;fill-opacity:1;stroke:none;stroke-width:0.159044"
       d="m 72.700775,84.660397 c -0.130781,0.68835 0.005,1.27656 -0.04384,1.94698 -0.02119,0.29275 -0.221228,0.50499 -0.149309,0.81531 0.08471,0.36544 0.375835,0.39427 0.569912,0.65555 0.175878,0.23675 0.119975,0.73729 0.104301,1.01511 -0.02814,0.49591 -0.169949,0.95961 -0.376035,1.40912 -0.06985,0.15267 -0.225122,0.38794 -0.07317,0.53891 0.641265,0.63766 1.549856,-0.0162 1.7121,-0.6951 0.20021,-0.8376 -0.265472,-1.95007 -0.688754,-2.66481 0.503321,-0.57427 -0.206356,-0.84105 -0.396908,-1.28675 -0.262577,-0.61497 -0.06212,-1.42469 0.341102,-1.92083 0.759752,-0.93477 1.946525,-1.67279 2.89524,-2.40716 0.240311,-0.1859 0.859735,-0.79046 1.117461,-0.3295 0.183014,0.32752 -0.475671,0.66519 -0.672901,0.81552 -0.893156,0.68077 -1.72896,1.44747 -2.635809,2.10731 0.817438,0.29037 2.044874,0.0958 2.913943,0.11382 0.336456,0.008 0.78791,0.0945 1.105389,-0.0348 0.41183,-0.16762 0.799669,-0.54667 1.159966,-0.80534 l 2.354073,-1.69011 1.969732,-1.41416 c 0.187075,-0.13445 0.652559,-0.41895 0.370729,-0.68939 -0.182485,-0.17514 -0.568424,-0.12312 -0.800304,-0.12691 -0.709923,-0.0105 -1.419345,-0.0396 -2.129138,-0.046 -1.064341,-0.009 -2.129972,-0.0727 -3.194431,-0.0713 -0.410229,6.2e-4 -0.886162,-0.0922 -1.286129,0.0203 -0.400185,0.11121 -0.786765,0.5037 -1.120502,0.74329 l -2.257978,1.62109 -2.017765,1.44867 c -0.188336,0.13521 -0.649605,0.35452 -0.628065,0.63186 0.03639,0.47033 1.523752,0.32334 1.856831,0.2988 m 1.24355,0.78901 c 0.02698,0.22883 0.03069,0.58268 0.185446,0.76491 0.261661,0.30833 0.634756,0.38572 0.765503,0.81985 0.08551,0.28336 -0.145832,0.73578 0.144782,0.91445 0.558361,0.34311 1.474085,0.28508 2.098531,0.22219 1.578534,-0.15901 3.246044,-0.64336 4.576422,-1.53304 0.511658,-0.34234 1.089935,-0.76967 1.315631,-1.36489 0.277375,-0.73157 -0.310304,-1.83169 -0.52944,-2.5378 l -2.787276,1.99782 -1.12211,0.73811 -1.401112,0.0283 z"
       id="path5-4" /></g></svg>
